# xmcd
#
# Track frame offsets:
# 150
# 16775
# 29825
# 46507
# 62422
# 75042
# 87625
# 104362
# 122625
# 139560
# 152652
# 165415
# 177252
# 192652
#
# Disc length: 2782 seconds
#
#
# Revision: 0
# Processed by: cddbd v1.5.2PL0 Copyright (c) Steve Scherf et al.
# Submitted via: FreeRIP 2.951 
#
DISCID=a40adc0e
DTITLE=Vreny und Franz Stadelmann - Jodelduett
DYEAR=1900
DGENRE=Folk
TTITLE0=Ds Schoene gseh
TTITLE1=Moeringenberg-Jodel
TTITLE2=Im Casy zlieb
TTITLE3=E Huehnergschicht
TTITLE4=Uesi Musig
TTITLE5=Singe, jodle, jutze
TTITLE6=Z Signau im Turm
TTITLE7=Aes isch ae so
TTITLE8=Silberdistel
TTITLE9=Rosengarten-Jutz
TTITLE10=I zeige was i cha
TTITLE11=Heimweh-Jutz
TTITLE12=Gruss an Ueli
TTITLE13=Uf der Gemsjagd
EXTD=
EXTT0=
EXTT1=
EXTT2=
EXTT3=
EXTT4=
EXTT5=
EXTT6=
EXTT7=
EXTT8=
EXTT9=
EXTT10=
EXTT11=
EXTT12=
EXTT13=
PLAYORDER=
